<svg width="1920" height="990" viewBox="0 0 1920 990" fill="none" xmlns="http://www.w3.org/2000/svg">
<g clip-path="url(#clip0_3_24)">
<rect width="1920" height="990" fill="#2F3E83"/>
<path opacity="0.3" d="M-448.725 -567.049L-448.837 -566.952C-574.296 -458.731 -588.27 -269.296 -480.049 -143.838L-141.197 248.988C-32.9757 374.447 156.459 388.421 281.918 280.2L282.03 280.103C407.489 171.882 421.463 -17.5526 313.242 -143.011L-25.6104 -535.837C-133.831 -661.296 -323.266 -675.27 -448.725 -567.049Z" fill="#162050"/>
<path opacity="0.3" d="M1606.45 746.595L1606.34 746.695C1484.65 859.138 1477.15 1048.94 1589.59 1170.63L1941.66 1551.65C2054.11 1673.34 2243.91 1680.84 2365.6 1568.4L2365.71 1568.3C2487.4 1455.85 2494.89 1266.05 2382.45 1144.36L2030.38 763.339C1917.94 641.649 1728.14 634.153 1606.45 746.595Z" fill="#162050"/>
<path d="M952.883 317.352C914.848 319.891 880.977 342.742 863.965 377.426C859.09 387.43 856.855 394.641 854.063 409.164C853.859 410.281 853.809 410.281 851.879 408.707C846.699 404.543 840.656 406.828 840.656 412.973V415.613L846.852 421.656C855.281 429.781 856.449 430.594 859.496 430.594C862.238 430.594 863.355 429.781 872.852 420.844C877.879 416.121 877.879 416.121 878.133 413.277C878.336 410.789 878.184 410.281 876.965 408.859C874.781 406.27 871.582 405.863 868.129 407.691C866.859 408.402 866.809 408.707 868.891 400.785C877.828 365.949 906.57 338.781 941.965 331.621C984.52 323.039 1027.84 345.078 1046.42 384.738C1047.54 387.074 1049.37 391.898 1050.59 395.453C1053.18 403.375 1053.43 403.832 1055.77 404.949C1058.25 406.117 1060.74 405.609 1062.93 403.426C1065.21 401.141 1065.16 398.855 1062.52 390.781C1056.58 372.551 1044.7 354.879 1030.07 342.59C1008.34 324.359 981.371 315.523 952.883 317.352Z" fill="#F3F5FF"/>
<path d="M956.133 371.383C954.457 373.059 954.406 373.211 954.406 377.477V381.844H952.223C945.621 381.844 937.699 386.617 933.637 392.914C929.016 400.176 928.711 411.094 932.977 418.406C936.988 425.312 945.266 430.594 952.172 430.594H954.406V442.781V454.969H946.484C939.324 454.969 938.41 455.07 937.09 456.035C933.992 458.219 933.992 463.906 937.09 466.09C938.41 467.055 939.324 467.156 946.484 467.156H954.406V471.523C954.406 475.789 954.457 475.941 956.133 477.617C957.656 479.141 958.164 479.344 960.5 479.344C962.836 479.344 963.344 479.141 964.867 477.617C966.543 475.941 966.594 475.789 966.594 471.523V467.156H968.879C973.855 467.156 980.406 464.008 984.469 459.641C989.09 454.715 990.969 449.789 990.969 442.781C990.969 435.773 989.09 430.848 984.469 425.922C980.305 421.453 973.957 418.406 968.828 418.406H966.594V406.219V394.031H974.516C983.605 394.031 984.875 393.574 985.941 389.918C986.754 387.277 985.891 384.332 983.91 382.91C982.59 381.945 981.676 381.844 974.516 381.844H966.594V377.477C966.594 373.211 966.543 373.059 964.867 371.383C963.344 369.859 962.836 369.656 960.5 369.656C958.164 369.656 957.656 369.859 956.133 371.383ZM954.406 406.219V417.898H953.035C949.633 417.848 945.367 414.75 943.691 411.043C942.422 408.301 942.422 403.73 943.691 401.242C945.57 397.535 949.582 394.59 952.781 394.539H954.406V406.219ZM971.57 432.066C980.609 436.688 980.508 449.332 971.418 453.496C970.301 454.004 968.777 454.461 968.016 454.461H966.594V442.781V431.102H968.117C968.98 431.102 970.555 431.559 971.57 432.066Z" fill="#01CC74"/>
<path d="M1056.12 420.895C1054.5 422.316 1050.89 425.566 1048.15 428.156C1043.12 432.879 1043.12 432.879 1042.87 435.723C1042.66 438.211 1042.82 438.719 1044.04 440.141C1046.17 442.68 1049.42 443.137 1052.77 441.309C1053.73 440.801 1053.79 440.902 1053.38 443.188C1050.79 457 1043.73 471.93 1034.13 483.863C1000.01 526.266 937.293 531.191 896.973 494.629C884.734 483.508 875.188 468.629 870.312 453.191C868.078 446.031 867.57 445.168 865.234 444.051C861.121 442.121 856.398 445.066 856.398 449.637C856.398 452.988 860.055 463.551 863.965 471.574C874.578 493.156 891.285 510.066 912.512 520.629C928.051 528.348 942.625 531.699 960.754 531.75C978.426 531.75 993.203 528.246 1008.74 520.477C1029.92 509.863 1046.42 493.156 1057.04 471.574C1061.91 461.57 1064.14 454.41 1066.94 439.836C1067.14 438.719 1067.19 438.719 1069.12 440.293C1074.3 444.457 1080.34 442.172 1080.34 436.027V433.387L1074.15 427.344C1065.72 419.219 1064.55 418.406 1061.5 418.406C1059.32 418.406 1058.76 418.66 1056.12 420.895Z" fill="#F3F5FF"/>
<path d="M626.616 651.796C626.616 654.484 625.968 657.004 624.672 659.356C623.424 661.708 621.432 663.604 618.696 665.044C616.008 666.484 612.6 667.204 608.472 667.204H600.048V686.5H589.968V636.244H608.472C612.36 636.244 615.672 636.916 618.408 638.26C621.144 639.604 623.184 641.452 624.528 643.804C625.92 646.156 626.616 648.82 626.616 651.796ZM608.04 659.068C610.824 659.068 612.888 658.444 614.232 657.196C615.576 655.9 616.248 654.1 616.248 651.796C616.248 646.9 613.512 644.452 608.04 644.452H600.048V659.068H608.04ZM631.181 666.412C631.181 662.38 631.973 658.804 633.557 655.684C635.189 652.564 637.373 650.164 640.109 648.484C642.893 646.804 645.989 645.964 649.397 645.964C652.373 645.964 654.965 646.564 657.173 647.764C659.429 648.964 661.229 650.476 662.573 652.3V646.612H672.725V686.5H662.573V680.668C661.277 682.54 659.477 684.1 657.173 685.348C654.917 686.548 652.301 687.148 649.325 687.148C645.965 687.148 642.893 686.284 640.109 684.556C637.373 682.828 635.189 680.404 633.557 677.284C631.973 674.116 631.181 670.492 631.181 666.412ZM662.573 666.556C662.573 664.108 662.093 662.02 661.133 660.292C660.173 658.516 658.877 657.172 657.245 656.26C655.613 655.3 653.861 654.82 651.989 654.82C650.117 654.82 648.389 655.276 646.805 656.188C645.221 657.1 643.925 658.444 642.917 660.22C641.957 661.948 641.477 664.012 641.477 666.412C641.477 668.812 641.957 670.924 642.917 672.748C643.925 674.524 645.221 675.892 646.805 676.852C648.437 677.812 650.165 678.292 651.989 678.292C653.861 678.292 655.613 677.836 657.245 676.924C658.877 675.964 660.173 674.62 661.133 672.892C662.093 671.116 662.573 669.004 662.573 666.556ZM720.73 646.612L696.034 705.364H685.306L693.946 685.492L677.962 646.612H689.266L699.562 674.476L710.002 646.612H720.73ZM775.699 646.036C780.595 646.036 784.531 647.548 787.507 650.572C790.531 653.548 792.043 657.724 792.043 663.1V686.5H781.963V664.468C781.963 661.348 781.171 658.972 779.587 657.34C778.003 655.66 775.843 654.82 773.107 654.82C770.371 654.82 768.187 655.66 766.555 657.34C764.971 658.972 764.179 661.348 764.179 664.468V686.5H754.099V664.468C754.099 661.348 753.307 658.972 751.723 657.34C750.139 655.66 747.979 654.82 745.243 654.82C742.459 654.82 740.251 655.66 738.619 657.34C737.035 658.972 736.243 661.348 736.243 664.468V686.5H726.163V646.612H736.243V651.436C737.539 649.756 739.195 648.436 741.211 647.476C743.275 646.516 745.531 646.036 747.979 646.036C751.099 646.036 753.883 646.708 756.331 648.052C758.779 649.348 760.675 651.22 762.019 653.668C763.315 651.364 765.187 649.516 767.635 648.124C770.131 646.732 772.819 646.036 775.699 646.036ZM838.689 665.692C838.689 667.132 838.593 668.428 838.401 669.58H809.241C809.481 672.46 810.489 674.716 812.265 676.348C814.041 677.98 816.225 678.796 818.817 678.796C822.561 678.796 825.225 677.188 826.809 673.972H837.681C836.529 677.812 834.321 680.98 831.057 683.476C827.793 685.924 823.785 687.148 819.033 687.148C815.193 687.148 811.737 686.308 808.665 684.628C805.641 682.9 803.265 680.476 801.537 677.356C799.857 674.236 799.017 670.636 799.017 666.556C799.017 662.428 799.857 658.804 801.537 655.684C803.217 652.564 805.569 650.164 808.593 648.484C811.617 646.804 815.097 645.964 819.033 645.964C822.825 645.964 826.209 646.78 829.185 648.412C832.209 650.044 834.537 652.372 836.169 655.396C837.849 658.372 838.689 661.804 838.689 665.692ZM828.249 662.812C828.201 660.22 827.265 658.156 825.441 656.62C823.617 655.036 821.385 654.244 818.745 654.244C816.249 654.244 814.137 655.012 812.409 656.548C810.729 658.036 809.697 660.124 809.313 662.812H828.249ZM868.15 646.036C872.902 646.036 876.742 647.548 879.67 650.572C882.598 653.548 884.062 657.724 884.062 663.1V686.5H873.982V664.468C873.982 661.3 873.19 658.876 871.606 657.196C870.022 655.468 867.862 654.604 865.126 654.604C862.342 654.604 860.134 655.468 858.502 657.196C856.918 658.876 856.126 661.3 856.126 664.468V686.5H846.046V646.612H856.126V651.58C857.47 649.852 859.174 648.508 861.238 647.548C863.35 646.54 865.654 646.036 868.15 646.036ZM905.384 654.892V674.188C905.384 675.532 905.696 676.516 906.32 677.14C906.992 677.716 908.096 678.004 909.632 678.004H914.312V686.5H907.976C899.48 686.5 895.232 682.372 895.232 674.116V654.892H890.48V646.612H895.232V636.748H905.384V646.612H914.312V654.892H905.384ZM975.366 651.796C975.366 654.484 974.718 657.004 973.422 659.356C972.174 661.708 970.182 663.604 967.446 665.044C964.758 666.484 961.35 667.204 957.222 667.204H948.798V686.5H938.718V636.244H957.222C961.11 636.244 964.422 636.916 967.158 638.26C969.894 639.604 971.934 641.452 973.278 643.804C974.67 646.156 975.366 648.82 975.366 651.796ZM956.79 659.068C959.574 659.068 961.638 658.444 962.982 657.196C964.326 655.9 964.998 654.1 964.998 651.796C964.998 646.9 962.262 644.452 956.79 644.452H948.798V659.068H956.79ZM992.603 652.804C993.899 650.692 995.579 649.036 997.643 647.836C999.755 646.636 1002.15 646.036 1004.84 646.036V656.62H1002.18C999.011 656.62 996.611 657.364 994.979 658.852C993.395 660.34 992.603 662.932 992.603 666.628V686.5H982.523V646.612H992.603V652.804ZM1029.34 687.148C1025.5 687.148 1022.05 686.308 1018.98 684.628C1015.9 682.9 1013.48 680.476 1011.7 677.356C1009.98 674.236 1009.11 670.636 1009.11 666.556C1009.11 662.476 1010 658.876 1011.78 655.756C1013.6 652.636 1016.07 650.236 1019.19 648.556C1022.31 646.828 1025.79 645.964 1029.63 645.964C1033.47 645.964 1036.95 646.828 1040.07 648.556C1043.19 650.236 1045.64 652.636 1047.42 655.756C1049.24 658.876 1050.15 662.476 1050.15 666.556C1050.15 670.636 1049.22 674.236 1047.34 677.356C1045.52 680.476 1043.02 682.9 1039.86 684.628C1036.74 686.308 1033.23 687.148 1029.34 687.148ZM1029.34 678.364C1031.17 678.364 1032.87 677.932 1034.46 677.068C1036.09 676.156 1037.38 674.812 1038.34 673.036C1039.3 671.26 1039.78 669.1 1039.78 666.556C1039.78 662.764 1038.78 659.86 1036.76 657.844C1034.79 655.78 1032.37 654.748 1029.49 654.748C1026.61 654.748 1024.18 655.78 1022.22 657.844C1020.3 659.86 1019.34 662.764 1019.34 666.556C1019.34 670.348 1020.27 673.276 1022.14 675.34C1024.06 677.356 1026.46 678.364 1029.34 678.364ZM1054.95 666.556C1054.95 662.428 1055.79 658.828 1057.47 655.756C1059.15 652.636 1061.48 650.236 1064.46 648.556C1067.43 646.828 1070.84 645.964 1074.68 645.964C1079.63 645.964 1083.71 647.212 1086.92 649.708C1090.19 652.156 1092.37 655.612 1093.47 660.076H1082.6C1082.03 658.348 1081.04 657.004 1079.65 656.044C1078.31 655.036 1076.63 654.532 1074.61 654.532C1071.73 654.532 1069.45 655.588 1067.77 657.7C1066.09 659.764 1065.25 662.716 1065.25 666.556C1065.25 670.348 1066.09 673.3 1067.77 675.412C1069.45 677.476 1071.73 678.508 1074.61 678.508C1078.69 678.508 1081.35 676.684 1082.6 673.036H1093.47C1092.37 677.356 1090.19 680.788 1086.92 683.332C1083.66 685.876 1079.58 687.148 1074.68 687.148C1070.84 687.148 1067.43 686.308 1064.46 684.628C1061.48 682.9 1059.15 680.5 1057.47 677.428C1055.79 674.308 1054.95 670.684 1054.95 666.556ZM1137.94 665.692C1137.94 667.132 1137.84 668.428 1137.65 669.58H1108.49C1108.73 672.46 1109.74 674.716 1111.51 676.348C1113.29 677.98 1115.47 678.796 1118.07 678.796C1121.81 678.796 1124.47 677.188 1126.06 673.972H1136.93C1135.78 677.812 1133.57 680.98 1130.31 683.476C1127.04 685.924 1123.03 687.148 1118.28 687.148C1114.44 687.148 1110.99 686.308 1107.91 684.628C1104.89 682.9 1102.51 680.476 1100.79 677.356C1099.11 674.236 1098.27 670.636 1098.27 666.556C1098.27 662.428 1099.11 658.804 1100.79 655.684C1102.47 652.564 1104.82 650.164 1107.84 648.484C1110.87 646.804 1114.35 645.964 1118.28 645.964C1122.07 645.964 1125.46 646.78 1128.43 648.412C1131.46 650.044 1133.79 652.372 1135.42 655.396C1137.1 658.372 1137.94 661.804 1137.94 665.692ZM1127.5 662.812C1127.45 660.22 1126.51 658.156 1124.69 656.62C1122.87 655.036 1120.63 654.244 1117.99 654.244C1115.5 654.244 1113.39 655.012 1111.66 656.548C1109.98 658.036 1108.95 660.124 1108.56 662.812H1127.5ZM1160.56 687.148C1157.3 687.148 1154.37 686.572 1151.78 685.42C1149.18 684.22 1147.12 682.612 1145.58 680.596C1144.1 678.58 1143.28 676.348 1143.14 673.9H1153.29C1153.48 675.436 1154.22 676.708 1155.52 677.716C1156.86 678.724 1158.52 679.228 1160.49 679.228C1162.41 679.228 1163.9 678.844 1164.95 678.076C1166.06 677.308 1166.61 676.324 1166.61 675.124C1166.61 673.828 1165.94 672.868 1164.59 672.244C1163.3 671.572 1161.21 670.852 1158.33 670.084C1155.35 669.364 1152.9 668.62 1150.98 667.852C1149.11 667.084 1147.48 665.908 1146.09 664.324C1144.74 662.74 1144.07 660.604 1144.07 657.916C1144.07 655.708 1144.7 653.692 1145.94 651.868C1147.24 650.044 1149.06 648.604 1151.42 647.548C1153.82 646.492 1156.62 645.964 1159.84 645.964C1164.59 645.964 1168.38 647.164 1171.22 649.564C1174.05 651.916 1175.61 655.108 1175.9 659.14H1166.25C1166.1 657.556 1165.43 656.308 1164.23 655.396C1163.08 654.436 1161.52 653.956 1159.55 653.956C1157.73 653.956 1156.31 654.292 1155.3 654.964C1154.34 655.636 1153.86 656.572 1153.86 657.772C1153.86 659.116 1154.54 660.148 1155.88 660.868C1157.22 661.54 1159.31 662.236 1162.14 662.956C1165.02 663.676 1167.4 664.42 1169.27 665.188C1171.14 665.956 1172.75 667.156 1174.1 668.788C1175.49 670.372 1176.21 672.484 1176.26 675.124C1176.26 677.428 1175.61 679.492 1174.31 681.316C1173.06 683.14 1171.24 684.58 1168.84 685.636C1166.49 686.644 1163.73 687.148 1160.56 687.148ZM1199.79 687.148C1196.53 687.148 1193.6 686.572 1191.01 685.42C1188.42 684.22 1186.35 682.612 1184.82 680.596C1183.33 678.58 1182.51 676.348 1182.37 673.9H1192.52C1192.71 675.436 1193.46 676.708 1194.75 677.716C1196.1 678.724 1197.75 679.228 1199.72 679.228C1201.64 679.228 1203.13 678.844 1204.19 678.076C1205.29 677.308 1205.84 676.324 1205.84 675.124C1205.84 673.828 1205.17 672.868 1203.83 672.244C1202.53 671.572 1200.44 670.852 1197.56 670.084C1194.59 669.364 1192.14 668.62 1190.22 667.852C1188.35 667.084 1186.71 665.908 1185.32 664.324C1183.98 662.74 1183.31 660.604 1183.31 657.916C1183.31 655.708 1183.93 653.692 1185.18 651.868C1186.47 650.044 1188.3 648.604 1190.65 647.548C1193.05 646.492 1195.86 645.964 1199.07 645.964C1203.83 645.964 1207.62 647.164 1210.45 649.564C1213.28 651.916 1214.84 655.108 1215.13 659.14H1205.48C1205.34 657.556 1204.67 656.308 1203.47 655.396C1202.31 654.436 1200.75 653.956 1198.79 653.956C1196.96 653.956 1195.55 654.292 1194.54 654.964C1193.58 655.636 1193.1 656.572 1193.1 657.772C1193.1 659.116 1193.77 660.148 1195.11 660.868C1196.46 661.54 1198.55 662.236 1201.38 662.956C1204.26 663.676 1206.63 664.42 1208.51 665.188C1210.38 665.956 1211.99 667.156 1213.33 668.788C1214.72 670.372 1215.44 672.484 1215.49 675.124C1215.49 677.428 1214.84 679.492 1213.55 681.316C1212.3 683.14 1210.47 684.58 1208.07 685.636C1205.72 686.644 1202.96 687.148 1199.79 687.148ZM1228.88 641.86C1227.1 641.86 1225.61 641.308 1224.41 640.204C1223.26 639.052 1222.68 637.636 1222.68 635.956C1222.68 634.276 1223.26 632.884 1224.41 631.78C1225.61 630.628 1227.1 630.052 1228.88 630.052C1230.65 630.052 1232.12 630.628 1233.27 631.78C1234.47 632.884 1235.07 634.276 1235.07 635.956C1235.07 637.636 1234.47 639.052 1233.27 640.204C1232.12 641.308 1230.65 641.86 1228.88 641.86ZM1233.84 646.612V686.5H1223.76V646.612H1233.84ZM1265.91 646.036C1270.66 646.036 1274.5 647.548 1277.43 650.572C1280.36 653.548 1281.82 657.724 1281.82 663.1V686.5H1271.74V664.468C1271.74 661.3 1270.95 658.876 1269.36 657.196C1267.78 655.468 1265.62 654.604 1262.88 654.604C1260.1 654.604 1257.89 655.468 1256.26 657.196C1254.68 658.876 1253.88 661.3 1253.88 664.468V686.5H1243.8V646.612H1253.88V651.58C1255.23 649.852 1256.93 648.508 1259 647.548C1261.11 646.54 1263.41 646.036 1265.91 646.036ZM1307.03 645.964C1310.01 645.964 1312.62 646.564 1314.88 647.764C1317.13 648.916 1318.91 650.428 1320.21 652.3V646.612H1330.36V686.788C1330.36 690.484 1329.61 693.772 1328.13 696.652C1326.64 699.58 1324.41 701.884 1321.43 703.564C1318.45 705.292 1314.85 706.156 1310.63 706.156C1304.97 706.156 1300.31 704.836 1296.66 702.196C1293.06 699.556 1291.02 695.956 1290.54 691.396H1300.55C1301.08 693.22 1302.21 694.66 1303.93 695.716C1305.71 696.82 1307.85 697.372 1310.34 697.372C1313.27 697.372 1315.65 696.484 1317.47 694.708C1319.29 692.98 1320.21 690.34 1320.21 686.788V680.596C1318.91 682.468 1317.11 684.028 1314.81 685.276C1312.55 686.524 1309.96 687.148 1307.03 687.148C1303.67 687.148 1300.6 686.284 1297.81 684.556C1295.03 682.828 1292.82 680.404 1291.19 677.284C1289.61 674.116 1288.81 670.492 1288.81 666.412C1288.81 662.38 1289.61 658.804 1291.19 655.684C1292.82 652.564 1295.01 650.164 1297.74 648.484C1300.53 646.804 1303.62 645.964 1307.03 645.964ZM1320.21 666.556C1320.21 664.108 1319.73 662.02 1318.77 660.292C1317.81 658.516 1316.51 657.172 1314.88 656.26C1313.25 655.3 1311.49 654.82 1309.62 654.82C1307.75 654.82 1306.02 655.276 1304.44 656.188C1302.85 657.1 1301.56 658.444 1300.55 660.22C1299.59 661.948 1299.11 664.012 1299.11 666.412C1299.11 668.812 1299.59 670.924 1300.55 672.748C1301.56 674.524 1302.85 675.892 1304.44 676.852C1306.07 677.812 1307.8 678.292 1309.62 678.292C1311.49 678.292 1313.25 677.836 1314.88 676.924C1316.51 675.964 1317.81 674.62 1318.77 672.892C1319.73 671.116 1320.21 669.004 1320.21 666.556Z" fill="white"/>
</g>
<defs>
<clipPath id="clip0_3_24">
<rect width="1920" height="990" fill="white"/>
</clipPath>
</defs>
</svg>
